<?xml version="1.0" encoding="utf-8"?>
<!-- Generator: Adobe Illustrator 25.0.1, SVG Export Plug-In . SVG Version: 6.00 Build 0)  -->
<svg version="1.1" id="Layer_1" xmlns="http://www.w3.org/2000/svg" xmlns:xlink="http://www.w3.org/1999/xlink" x="0px" y="0px"
	 viewBox="0 0 430 430" style="enable-background:new 0 0 430 430;" xml:space="preserve">
<style type="text/css">
	.st0{fill:#3080e8;}
	.st1{fill:#c71f16;}
</style>
<g>
	<path class="st0" d="M363.6,245.6H66.4c-3.3,0-6-2.7-6-6s2.7-6,6-6h285.9l-43.2-64.1H117.7c-3.3,0-6-2.7-6-6c0-3.3,2.7-6,6-6h194.6
		c2,0,3.9,1,5,2.6l51.3,76.1c1.2,1.8,1.4,4.2,0.3,6.2S365.8,245.6,363.6,245.6z"/>
	<path class="st0" d="M66.4,245.6c-1.2,0-2.3-0.3-3.3-1c-2.7-1.9-3.5-5.6-1.6-8.3l51.3-76.1c1.9-2.7,5.6-3.5,8.3-1.6
		c2.7,1.9,3.5,5.6,1.6,8.3L71.4,243C70.2,244.7,68.3,245.6,66.4,245.6z"/>
	<path class="st0" d="M149.1,245.6c-0.8,0-1.6-0.2-2.4-0.5c-3-1.3-4.4-4.9-3.1-7.9l33.5-76.1c1.3-3,4.9-4.4,7.9-3.1
		c3,1.3,4.4,4.9,3.1,7.9L154.6,242C153.6,244.3,151.4,245.6,149.1,245.6z"/>
	<path class="st0" d="M280.9,245.6c-2.3,0-4.5-1.3-5.5-3.6L242,166c-1.3-3,0-6.6,3.1-7.9c3-1.3,6.6,0,7.9,3.1l33.4,76.1
		c1.3,3,0,6.6-3.1,7.9C282.6,245.5,281.7,245.6,280.9,245.6z"/>
	<path class="st0" d="M215,396.8c-1.6,0-3.2-0.6-4.3-1.8L62.1,243.8c-1.7-1.7-2.2-4.3-1.3-6.5s3.1-3.7,5.5-3.7h297.2
		c2.4,0,4.6,1.5,5.5,3.7s0.4,4.8-1.3,6.5L219.3,395C218.2,396.2,216.6,396.8,215,396.8z M80.7,245.6L215,382.2l134.3-136.6H80.7z"/>
	<path class="st0" d="M215,396.8c-0.8,0-1.6-0.2-2.4-0.5c-3-1.3-4.4-4.9-3.1-7.9l65.9-151.2c1.3-3,4.9-4.4,7.9-3.1
		c3,1.3,4.4,4.9,3.1,7.9l-65.9,151.2C219.5,395.5,217.3,396.8,215,396.8z"/>
	<path class="st0" d="M215,396.8c-2.3,0-4.5-1.3-5.5-3.6L143.6,242c-1.3-3,0.1-6.6,3.1-7.9c3-1.3,6.6,0.1,7.9,3.1l65.9,151.2
		c1.3,3-0.1,6.6-3.1,7.9C216.6,396.6,215.8,396.8,215,396.8z"/>
</g>
<g>
	<path class="st1" d="M362.8,181.3c-2.1,0-4.1-1.1-5.2-3c-1.7-2.9-0.7-6.5,2.2-8.2l45.1-26.1c2.9-1.7,6.5-0.7,8.2,2.2
		c1.7,2.9,0.7,6.5-2.2,8.2l-45.1,26.1C364.9,181,363.8,181.3,362.8,181.3z"/>
	<path class="st1" d="M299.5,119.3c-1,0-2-0.3-3-0.8c-2.9-1.7-3.9-5.3-2.2-8.2l26-45.3c1.7-2.9,5.3-3.9,8.2-2.2
		c2.9,1.7,3.9,5.3,2.2,8.2l-26,45.3C303.6,118.3,301.6,119.3,299.5,119.3z"/>
	<path class="st1" d="M213.9,97.5c-3.3,0-6-2.7-6-6V39.2c0-3.3,2.7-6,6-6c3.3,0,6,2.7,6,6v52.3C219.9,94.8,217.2,97.5,213.9,97.5z"
		/>
	<path class="st1" d="M128.8,121.6c-2.1,0-4.1-1.1-5.2-3l-26-45.3c-1.7-2.9-0.7-6.5,2.2-8.2c2.9-1.7,6.5-0.7,8.2,2.2l26,45.3
		c1.7,2.9,0.7,6.5-2.2,8.2C130.9,121.3,129.9,121.6,128.8,121.6z"/>
	<path class="st1" d="M67.2,185.2c-1,0-2.1-0.3-3-0.8l-45.1-26.1c-2.9-1.7-3.8-5.3-2.2-8.2c1.7-2.9,5.3-3.8,8.2-2.2L70.2,174
		c2.9,1.7,3.8,5.3,2.2,8.2C71.3,184.1,69.2,185.2,67.2,185.2z"/>
</g>
</svg>
